<?xml version="1.0" encoding="UTF-8"?>
<svg width="1440px" height="1170px" viewBox="0 0 1440 1170" version="1.1" xmlns="http://www.w3.org/2000/svg" xmlns:xlink="http://www.w3.org/1999/xlink">
    <!-- Generator: Sketch 53.2 (72643) - https://sketchapp.com -->
    <title>Bright Matter</title>
    <desc>Bright Matter logo</desc>
    <g id="Page-1" stroke="none" stroke-width="1" fill="none" fill-rule="evenodd" >
    <!-- opacity="0.212216332" -->
        <g id="Desktop-1440-C">
            <g id="circle_motif_bkg">
                <path d="M351,444.104046 C551.067611,444.104046 713.25,606.600112 713.25,807.049373 C713.25,1007.50393 551.067611,1170 351,1170" id="Stroke-1" class="logo-stroke" stroke-width="4.5"></path>
                <path d="M1077.51641,807.059972 L1077.51641,1170 C1277.71303,1170 1440,1007.50868 1440,807.059972 C1440,606.616563 1277.71303,444.125243 1077.51641,444.125243 L1078.09858,444.104046 L1066.67223,444.104046 C1003.62356,444.104046 944.448934,460.684901 893.25,489.729218" id="Stroke-3" class="logo-stroke" stroke-width="4.5"></path>
                <path d="M713.880937,805.798788 C713.880937,1006.94168 551.416084,1170 351,1170 L351,808.310557 C351,607.167668 513.470132,444.104046 713.880937,444.104046 L713.880937,444.104046 L713.880937,444.125243 C913.594807,444.125243 1075.5,606.616563 1075.5,807.059972 C1075.5,1007.50868 913.594807,1170 713.880937,1170 L713.880937,807.059972" id="Stroke-5" class="logo-stroke" stroke-width="4.5"></path>
                <path d="M351,1170 L351,1170 C157.148834,1170 0,1012.00651 0,817.118709 L0,0 C193.851166,0 351,157.993494 351,352.886592 L351,443.876638" id="Stroke-7" class="logo-stroke" stroke-width="4.5"></path>
                <path d="M1104.75,446.36105 C1104.75,463.791882 1090.64997,477.919075 1073.24734,477.919075 C1055.85003,477.919075 1041.75,463.791882 1041.75,446.36105 C1041.75,428.924881 1055.85003,414.797688 1073.24734,414.797688 C1090.64997,414.797688 1104.75,428.924881 1104.75,446.36105" id="Fill-9" class="logo-fill"></path>
                <path d="M382.21875,917.495525 C382.21875,934.926357 368.118725,949.058887 350.716087,949.058887 C333.324102,949.058887 319.21875,934.926357 319.21875,917.495525 C319.21875,900.064693 333.324102,885.9375 350.716087,885.9375 C368.118725,885.9375 382.21875,900.064693 382.21875,917.495525" id="Fill-11" class="logo-fill"></path>
                <path d="M990,1073.06092 C990,1090.49175 975.894648,1104.62428 958.497337,1104.62428 C941.100025,1104.62428 927,1090.49175 927,1073.06092 C927,1055.63008 941.100025,1041.50289 958.497337,1041.50289 C975.894648,1041.50289 990,1055.63008 990,1073.06092" id="Fill-13" class="logo-fill"></path>
                <path d="M463.5,579.36683 C463.5,596.797662 449.399975,610.924855 431.997337,610.924855 C414.605352,610.924855 400.5,596.797662 400.5,579.36683 C400.5,561.930661 414.605352,547.803468 431.997337,547.803468 C449.399975,547.803468 463.5,561.930661 463.5,579.36683" id="Fill-15" class="logo-fill"></path>
            </g>
        </g>
    </g>
</svg>